HIERARCHY
ROOT SpineBase
{
  OFFSET 0.000000 0.000000 0.000000
  CHANNELS 6 Xposition Yposition Zposition Zrotation Xrotation Yrotation
  JOINT SpineMid
  {
    OFFSET -0.000000 34.547655 0.000000
    CHANNELS 3 Zrotation Xrotation Yrotation
    JOINT SpineShoulder
    {
      OFFSET 0.096387 25.554002 -0.978105
      CHANNELS 3 Zrotation Xrotation Yrotation
      JOINT Neck
      {
        OFFSET -0.242294 8.331162 -0.821121
        CHANNELS 3 Zrotation Xrotation Yrotation
        JOINT Head
        {
          OFFSET -1.888994 12.302759 3.202855
          CHANNELS 3 Zrotation Xrotation Yrotation
          End Site
          {
            OFFSET 0 0 0
          }
        }
      }
      JOINT ShoulderLeft
      {
        OFFSET -6.712235 -9.396493 -16.226612
        CHANNELS 3 Zrotation Xrotation Yrotation
        JOINT ElbowLeft
        {
          OFFSET -7.328995 -24.064846 -3.227797
          CHANNELS 3 Zrotation Xrotation Yrotation
          JOINT WristLeft
          {
            OFFSET 2.646967 -21.883210 -9.461028
            CHANNELS 3 Zrotation Xrotation Yrotation
            JOINT HandLeft
            {
              OFFSET -3.393261 -4.455135 6.977737
              CHANNELS 3 Zrotation Xrotation Yrotation
              JOINT HandTipLeft
              {
                OFFSET -0.535639 -3.380986 -0.876874
                CHANNELS 3 Zrotation Xrotation Yrotation
                End Site
                {
                  OFFSET 0 0 0
                }
              }
              JOINT ThumbLeft
              {
                OFFSET 3.135796 0.584730 -0.996250
                CHANNELS 3 Zrotation Xrotation Yrotation
                End Site
                {
                  OFFSET 0 0 0
                }
              }
            }
          }
        }
      }
      JOINT ShoulderRight
      {
        OFFSET -0.272990 -6.678385 -11.939759
        CHANNELS 3 Zrotation Xrotation Yrotation
        JOINT ElbowRight
        {
          OFFSET -8.397449 -29.017167 -7.985143
          CHANNELS 3 Zrotation Xrotation Yrotation
          JOINT WristRight
          {
            OFFSET -8.507465 -21.954395 -1.469574
            CHANNELS 3 Zrotation Xrotation Yrotation
            JOINT HandRight
            {
              OFFSET -1.668089 -8.306039 2.624634
              CHANNELS 3 Zrotation Xrotation Yrotation
              JOINT HandTipRight
              {
                OFFSET -3.230997 -6.916939 1.321191
                CHANNELS 3 Zrotation Xrotation Yrotation
                End Site
                {
                  OFFSET 0 0 0
                }
              }
              JOINT ThumbRight
              {
                OFFSET -6.582240 -1.335283 -2.157316
                CHANNELS 3 Zrotation Xrotation Yrotation
                End Site
                {
                  OFFSET 0 0 0
                }
              }
            }
          }
        }
      }
    }
  }
  JOINT HipLeft
  {
    OFFSET -5.047807 1.116351 -0.835620
    CHANNELS 3 Zrotation Xrotation Yrotation
    JOINT KneeLeft
    {
      OFFSET 11.463212 -34.057685 9.085557
      CHANNELS 3 Zrotation Xrotation Yrotation
      JOINT AnkleLeft
      {
        OFFSET 5.243776 -40.337166 9.555991
        CHANNELS 3 Zrotation Xrotation Yrotation
        JOINT FootLeft
        {
          OFFSET 5.295970 -4.253629 -12.123309
          CHANNELS 3 Zrotation Xrotation Yrotation
          End Site
          {
            OFFSET 0 0 0
          }
        }
      }
    }
  }
  JOINT HipRight
  {
    OFFSET 5.366381 0.214185 -7.507679
    CHANNELS 3 Zrotation Xrotation Yrotation
    JOINT KneeRight
    {
      OFFSET -13.209456 -39.110352 -0.179966
      CHANNELS 3 Zrotation Xrotation Yrotation
      JOINT AnkleRight
      {
        OFFSET -1.609911 -37.649011 0.844520
        CHANNELS 3 Zrotation Xrotation Yrotation
        JOINT FootRight
        {
          OFFSET 5.568189 -4.105938 -12.066902
          CHANNELS 3 Zrotation Xrotation Yrotation
          End Site
          {
            OFFSET 0 0 0
          }
        }
      }
    }
  }
}
MOTION
Frames: 13
Frame Time: 0.033333
1.898779 80.866094 287.211063 0.000000 0.000000 32.646476 -0.000000 0.000000 -32.646476 -0.000000 0.000000 0.000000 -0.000000 0.000000 0.000000 0.000000 0.000000 0.000000 -0.000000 0.000000 0.000000 -0.000000 0.000000 0.000000 -0.000000 0.000000 0.000000 -0.000000 0.000000 0.000000 0.000000 0.000000 0.000000 0.000000 0.000000 0.000000 -0.000000 0.000000 0.000000 -0.000000 0.000000 0.000000 -0.000000 0.000000 0.000000 -0.000000 0.000000 0.000000 0.000000 0.000000 0.000000 0.000000 0.000000 0.000000 -0.000000 0.000000 -32.646476 -0.000000 0.000000 0.000000 -0.000000 0.000000 0.000000 0.000000 0.000000 0.000000 -0.000000 0.000000 -32.646476 -0.000000 0.000000 0.000000 -0.000000 0.000000 0.000000 0.000000 0.000000 0.000000
2.405309 80.832399 287.445898 0.502822 -0.354352 32.999018 -0.228733 0.571029 -32.996324 -0.000000 0.000000 0.000000 -0.983716 -0.736580 0.137092 0.000000 0.000000 0.000000 1.610159 0.285200 -0.308064 -1.608624 -0.293739 0.299933 -0.961709 -2.543413 0.393672 1.931376 5.469301 -1.205284 0.000000 0.000000 0.000000 0.000000 0.000000 0.000000 -0.000000 0.000000 0.000000 -0.000000 0.000000 0.000000 1.776185 1.392599 0.261848 -1.783050 -1.383797 -0.304971 0.000000 0.000000 0.000000 0.000000 0.000000 0.000000 -0.228733 0.571029 -32.996324 -0.000000 0.000000 0.000000 0.268260 -0.179895 -0.989648 0.000000 0.000000 0.000000 -0.228733 0.571029 -32.996324 -0.000000 0.000000 0.000000 0.260140 -0.171357 -0.997807 0.000000 0.000000 0.000000
2.836570 80.796470 287.661838 0.920358 -0.670049 33.272558 -0.401975 1.065092 -33.263440 -0.000000 0.000000 0.000000 -1.847477 -1.343636 0.254433 0.000000 0.000000 0.000000 2.885263 0.502698 -0.556777 -2.880365 -0.530064 0.530790 -1.895000 -4.866978 0.611923 3.621268 10.526036 -2.295544 0.000000 0.000000 0.000000 0.000000 0.000000 0.000000 1.251848 -0.203467 -0.284438 -0.282104 1.174029 -0.165982 2.170362 1.614428 0.905624 -3.181699 -2.541526 -0.558712 0.000000 0.000000 0.000000 0.000000 0.000000 0.000000 -1.362964 1.634920 -33.556405 1.115572 0.056415 0.315057 0.478123 -0.327469 -1.774153 0.000000 0.000000 0.000000 -0.785796 1.879330 -33.408588 0.768677 -0.468349 0.158151 0.463294 -0.312199 -1.788067 0.000000 0.000000 0.000000
3.192561 80.758309 287.858885 1.252786 -0.947163 33.458986 -0.059584 0.592478 -33.414884 -0.876112 0.486244 -0.031655 -2.585674 -1.815185 0.356262 0.000000 0.000000 0.000000 3.868525 0.664173 -0.750916 -3.859788 -0.713267 0.704451 -2.810347 -6.956759 0.656950 4.479819 14.037295 -2.766655 0.000000 0.000000 0.000000 0.000000 0.000000 0.000000 1.800133 -0.296410 -0.407116 -0.513731 1.653732 -0.222121 2.819654 2.190487 1.183734 -4.182495 -3.474107 -0.738696 0.000000 0.000000 0.000000 0.000000 0.000000 0.000000 -1.858444 2.270042 -33.838906 0.926728 0.922996 0.408454 1.245844 -1.278385 -2.299944 0.000000 0.000000 0.000000 -1.043309 2.584458 -33.632344 1.044186 -0.630825 0.214672 0.610036 -0.419672 -2.367799 0.000000 0.000000 0.000000
3.473284 80.717914 288.037038 1.500308 -1.185804 33.550998 -0.043363 0.694486 -33.494405 -1.079842 0.631786 -0.037769 -3.193880 -2.146788 0.446264 0.000000 0.000000 0.000000 4.590034 0.777577 -0.894047 -4.577843 -0.846539 0.829046 -3.717037 -8.802418 0.530574 4.082112 14.899860 -2.151413 0.000000 0.000000 0.000000 0.000000 0.000000 0.000000 2.295158 -0.382771 -0.516708 -0.804499 2.061583 -0.257602 3.173059 2.595605 1.351090 -4.353314 -4.886779 -0.384830 0.000000 0.000000 0.000000 0.000000 0.000000 0.000000 -2.233914 2.776444 -34.003590 1.115753 1.168889 0.505070 1.494124 -1.567875 -2.650497 0.000000 0.000000 0.000000 -1.218888 3.131999 -33.746554 1.248564 -0.746835 0.255586 0.700917 -0.491728 -2.735076 0.000000 0.000000 0.000000
3.678738 80.675285 288.196297 1.663127 -1.386105 33.542279 -0.011077 0.749090 -33.475598 -1.239280 0.768932 -0.042030 -3.668820 -2.335424 0.527398 0.000000 0.000000 0.000000 5.068768 0.847923 -0.988405 -5.054056 -0.931814 0.909748 -4.622918 -10.395918 0.234081 2.863387 13.246592 -0.667071 0.000000 0.000000 0.000000 0.000000 0.000000 0.000000 2.735930 -0.462069 -0.613191 -1.153432 2.397427 -0.270944 3.220741 2.818823 1.408323 -4.432173 -5.779096 -0.143504 0.000000 0.000000 0.000000 0.000000 0.000000 0.000000 -2.491476 3.150572 -34.048282 1.243081 1.382656 0.580597 1.658864 -1.785380 -2.792205 0.000000 0.000000 0.000000 -1.316887 3.521759 -33.747721 1.382650 -0.817121 0.280636 0.736359 -0.527086 -2.888791 0.000000 0.000000 0.000000
3.777067 80.632714 288.331959 1.692080 -1.538301 33.235008 0.060672 0.718064 -33.162390 -1.348367 0.905712 -0.044382 -4.040327 -2.498487 0.586959 0.000000 0.000000 0.000000 5.564110 0.812500 -1.048321 -5.549013 -0.910186 0.964727 -5.854400 -11.353949 -0.907031 -0.402872 9.867264 2.698305 0.000000 0.000000 0.000000 0.000000 0.000000 0.000000 3.170138 -0.539242 -0.708205 -1.832538 2.727438 -0.252835 2.956295 2.844085 1.288328 -4.316424 -7.480624 0.625196 0.000000 0.000000 0.000000 0.000000 0.000000 0.000000 -2.579640 3.380711 -33.765706 1.358598 1.537730 0.633097 1.640318 -1.917956 -2.575520 0.000000 0.000000 0.000000 -1.367321 3.535115 -33.380949 1.468231 0.506892 0.179458 0.591574 -1.669007 -2.599580 0.000000 0.000000 0.000000
3.789187 80.582224 288.439290 1.638636 -1.639907 32.863838 0.130724 0.649961 -32.789210 -1.394680 1.024412 -0.044794 -4.162425 -2.340763 0.646616 0.000000 0.000000 0.000000 5.433699 0.790407 -1.021386 -5.419390 -0.883454 0.942064 -6.394227 -11.390200 -1.634512 -1.072311 9.503323 3.845967 0.000000 0.000000 0.000000 0.000000 0.000000 0.000000 3.481956 -0.580506 -0.780786 -2.323096 2.950235 -0.234660 2.340041 2.008282 1.259416 -2.922322 -7.589306 1.317149 0.000000 0.000000 0.000000 0.000000 0.000000 0.000000 -2.525574 3.362892 -33.410798 1.249137 1.695490 0.642863 1.664587 -1.975158 -2.306943 0.000000 0.000000 0.000000 -1.253400 3.266688 -32.931704 1.179921 1.249609 0.070762 0.605986 -2.133181 -2.310304 0.000000 0.000000 0.000000
3.755120 80.540595 288.528755 1.532930 -1.700609 32.386794 0.210838 0.550227 -32.312627 -1.415081 1.124481 -0.044535 -4.108323 -1.860217 0.724674 0.000000 0.000000 0.000000 4.660293 0.681135 -0.870665 -4.649803 -0.749547 0.812517 -5.686644 -9.953109 -1.540970 -1.492999 4.364385 4.161284 0.000000 0.000000 0.000000 0.000000 0.000000 0.000000 3.744075 -0.641684 -0.833161 -2.725483 2.996513 -0.160388 1.335841 0.968594 1.103883 -1.702560 -6.396934 1.461869 0.000000 0.000000 0.000000 0.000000 0.000000 0.000000 -2.421075 3.257633 -32.945466 1.206970 1.797798 0.657773 1.510366 -1.929516 -1.797135 0.000000 0.000000 0.000000 -1.030856 3.297202 -32.499647 1.027490 1.193912 0.104708 0.534962 -2.101746 -1.783650 0.000000 0.000000 0.000000
3.756541 80.483490 288.645070 1.476972 -1.795640 32.515758 0.276814 0.492656 -32.440632 -1.444272 1.232928 -0.044410 -4.077107 -1.619277 0.762544 0.000000 0.000000 0.000000 4.695913 0.742173 -0.897081 -4.684190 -0.813036 0.833396 -9.499714 -15.701562 -3.275418 3.307607 6.449591 4.839626 0.000000 0.000000 0.000000 0.000000 0.000000 0.000000 3.914374 -0.670390 -0.870679 -3.016132 2.885125 -0.054506 -0.225237 2.035367 0.289778 -0.681286 -7.217005 1.961793 0.000000 0.000000 0.000000 0.000000 0.000000 0.000000 -2.395902 3.430396 -33.084501 1.288603 1.768047 0.666769 1.430561 -1.877164 -1.326175 0.000000 0.000000 0.000000 -0.917578 3.693166 -32.726134 1.379043 0.726994 0.217888 0.234446 -1.853521 -1.331636 0.000000 0.000000 0.000000
3.744900 80.435236 288.746739 1.412171 -1.863589 32.975058 0.327528 0.424887 -32.899899 -1.454278 1.330425 -0.043817 -3.931725 -1.071185 0.829100 0.000000 0.000000 0.000000 3.706770 0.788524 -0.769891 -3.696234 -0.836581 0.717380 -9.678526 -16.222619 -3.212924 3.894089 5.486784 4.696001 0.000000 0.000000 0.000000 0.000000 0.000000 0.000000 4.017527 -0.580671 -0.928309 -3.215212 2.483169 0.129912 -1.764720 1.807935 -0.253170 1.343396 -5.979781 2.213630 0.000000 0.000000 0.000000 0.000000 0.000000 0.000000 -2.376926 3.577202 -33.564828 1.354838 1.736691 0.676879 1.466950 -1.862285 -1.177293 0.000000 0.000000 0.000000 -0.789349 4.254708 -33.335685 1.885044 -0.115501 0.401820 -0.025199 -1.441975 -1.222667 0.000000 0.000000 0.000000
3.721753 80.408758 288.832760 1.342950 -1.913435 33.318577 0.366703 0.362291 -33.244211 -1.448904 1.410802 -0.042961 -3.756257 -0.406156 0.907950 0.000000 0.000000 0.000000 3.012252 0.864576 -0.695023 -3.001914 -0.899845 0.648712 -9.041275 -15.885871 -2.561936 4.124716 4.847412 3.928994 0.000000 0.000000 0.000000 0.000000 0.000000 0.000000 4.043995 -0.595700 -0.930711 -3.355613 2.175958 0.270609 -3.049308 2.041479 -0.800868 3.202097 -5.152518 2.477533 0.000000 0.000000 0.000000 0.000000 0.000000 0.000000 -2.303266 3.618540 -33.919168 1.347210 1.782983 0.683573 1.509879 -1.914949 -1.164748 0.000000 0.000000 0.000000 -0.857691 5.212396 -33.895238 3.154427 -1.482371 0.718369 -0.613847 -0.753039 -1.260936 0.000000 0.000000 0.000000
3.719590 80.404651 288.916597 1.302000 -1.963203 34.074803 0.396437 0.311471 -34.000376 -1.454321 1.484646 -0.042444 -3.586079 0.247027 0.983706 0.000000 0.000000 0.000000 1.706652 0.983724 -0.545024 -1.697476 -0.999477 0.515565 -7.443029 -13.843103 -1.599894 3.607589 1.404603 3.310307 0.000000 0.000000 0.000000 0.000000 0.000000 0.000000 4.033046 -0.693405 -0.895815 -3.493965 2.028872 0.351626 -4.167992 2.296826 -1.286769 5.846952 -5.332824 3.416352 0.000000 0.000000 0.000000 0.000000 0.000000 0.000000 -2.265912 3.709735 -34.696713 1.441066 1.834705 0.716696 1.680476 -2.106182 -1.872944 0.000000 0.000000 0.000000 -0.951965 6.462793 -34.921955 4.895714 -3.177361 1.168352 -1.270838 -0.035934 -2.020902 0.000000 0.000000 0.000000
